<svg version="1.2" xmlns="http://www.w3.org/2000/svg" viewBox="0 0 256 420" width="256" height="420">
	<title>leaf-1531-svg</title>
	<style>
		.s0 { fill: #000000 } 
	</style>
	<g id="Layer">
		<path id="Layer" fill-rule="evenodd" class="s0" d="m87.5 395.7h-13.1c-0.8 0-1.5-0.5-2-1.3-0.6-0.9-0.8-2-0.8-3.2 4.2-97.5 21.9-159 66.1-223.4-33.7 28.7-66.5 79.2-72.1 148.6-0.2 1.8-1 3.2-2.2 3.6-1.2 0.4-2.4-0.3-3-1.8-24.7-59.2-23.9-112.7 2.7-168.5 15.3-30.6 37.3-47.5 56.7-62.4 23.5-18.1 43.7-33.6 48.1-67.7 0.2-1.7 1.1-3 2.2-3.3 1.2-0.3 2.3 0.4 2.9 1.9 30.5 75.8 55.7 151.1 28.6 238.4-21.6 58-57.5 84.9-106.8 80-2.8 18.2-4.3 36.2-4.5 54.9 0 2.3-1.2 4.2-2.8 4.2zm-10.1-8.4h7.4c0.3-19.1 2-37.5 5.1-56.2 0.3-2 1.6-3.3 3-3.2 48.8 5.8 82.7-18.8 103.7-75.1 24.9-80.3 4.1-148.4-25-221.7-7.2 31.4-27.7 47.1-49.2 63.7-19.8 15.2-40.3 30.9-54.8 59.9-23.5 49.4-25.6 97-6.4 149 10-78.6 53.2-132.2 91.7-156.6 1.3-0.8 2.7-0.1 3.5 1.7 0.7 1.7 0.5 4-0.6 5.4-52.8 69.4-73.5 130.8-78.4 233.1z"/>
	</g>
</svg>