<?xml version="1.0" encoding="utf-8"?>
<svg viewBox="0 0 32 32" xmlns="http://www.w3.org/2000/svg">
  <defs>
    <linearGradient gradientUnits="userSpaceOnUse" x1="16" y1="0" x2="16" y2="32" id="gradient-0" gradientTransform="matrix(0.001579, -0.999999, 0.99681, 0.001573, 0.006159, 31.953332)">
      <stop offset="0" style="stop-color: rgb(100% 100% 100% / 0.1)"/>
      <stop offset="1" style="stop-color: rgb(56.687% 56.687% 56.687% / 0.1)"/>
    </linearGradient>
  </defs>
  <path d="M 15.999 0 C 24.837 0 32 7.164 32 16 C 32 24.836 24.837 32 15.999 32 C 7.163 32 0 24.836 0 16 C 0 7.164 7.163 0 15.999 0 Z" style="fill: url('#gradient-0');"/>
  <path stroke="rgba(230, 230, 230, 0.2)" d="M 16.75 11.75 C 16.75 11.172 16.125 10.812 15.625 11.1 C 15.393 11.234 15.25 11.482 15.25 11.75 L 15.25 15.25 L 11.75 15.25 C 11.173 15.25 10.812 15.875 11.101 16.375 C 11.235 16.607 11.482 16.75 11.75 16.75 L 15.25 16.75 L 15.25 20.25 C 15.25 20.827 15.875 21.188 16.375 20.899 C 16.607 20.765 16.75 20.518 16.75 20.25 L 16.75 16.75 L 20.25 16.75 C 20.828 16.75 21.189 16.125 20.9 15.625 C 20.766 15.393 20.518 15.25 20.25 15.25 L 16.75 15.25 L 16.75 11.75 Z"/>
</svg>