<?xml version="1.0" encoding="utf-8"?>
<svg viewBox="0 0 230 230" xmlns="http://www.w3.org/2000/svg" xmlns:bx="https://boxy-svg.com">
  <defs>
    <radialGradient gradientUnits="userSpaceOnUse" cx="115" cy="115" r="111.5" id="gradient-9">
      <stop offset="0" style="stop-color: rgba(255, 255, 255, 0.137);"/>
      <stop offset="0.921" style="stop-color: rgba(236, 236, 236, 0.196);"/>
      <stop offset="1" style="stop-color: rgba(131, 131, 131, 0.275);"/>
    </radialGradient>
    <linearGradient gradientUnits="userSpaceOnUse" x1="115" y1="103.951" x2="115" y2="149.231" id="gradient-4" gradientTransform="matrix(2.084464, 0, 0, 2.486809, -124.718555, -254.323986)">
      <stop offset="0" style="stop-color: rgb(233, 233, 232);"/>
      <stop offset="1" style="stop-color: rgb(241, 241, 231);"/>
    </linearGradient>
    <radialGradient gradientUnits="userSpaceOnUse" cx="115" cy="170.436" r="21.737" id="gradient-8" gradientTransform="matrix(0.038177, 2.486393, -2.486174, 0.054333, 534.337811, -125.677433)">
      <stop offset="0" style="stop-color: rgb(241, 241, 237);"/>
      <stop offset="1" style="stop-color: rgb(238, 237, 234);"/>
    </radialGradient>
    <radialGradient gradientUnits="userSpaceOnUse" cx="111.945" cy="141.298" r="8.373" id="gradient-0" gradientTransform="matrix(-0.007993, -0.801501, 3.735473, -0.048943, -411.907185, 196.274983)">
      <stop offset="0" style="stop-color: rgb(45, 22, 249);"/>
      <stop offset="1" style="stop-color: rgb(6, 27, 94);"/>
    </radialGradient>
    <radialGradient gradientUnits="userSpaceOnUse" cx="111.945" cy="141.298" r="8.373" id="gradient-1" gradientTransform="matrix(-0.008056, -0.84173, 3.765046, -0.051398, -415.977009, 214.843693)">
      <stop offset="0" style="stop-color: rgb(45, 22, 249);"/>
      <stop offset="1" style="stop-color: rgb(6, 27, 94);"/>
    </radialGradient>
    <radialGradient gradientUnits="userSpaceOnUse" cx="111.945" cy="141.298" r="8.373" id="gradient-2" gradientTransform="matrix(-0.007897, -0.84474, 3.689729, -0.051584, -405.534901, 228.164753)">
      <stop offset="0" style="stop-color: rgb(45, 22, 249);"/>
      <stop offset="1" style="stop-color: rgb(6, 27, 94);"/>
    </radialGradient>
    <radialGradient gradientUnits="userSpaceOnUse" cx="110.58" cy="127.135" r="1.97" id="gradient-5" gradientTransform="matrix(5.105964, -0.733214, 2.933464, 29.075235, -831.782185, -3553.565258)">
      <stop offset="0" style="stop-color: rgba(216, 216, 216, 0.173);"/>
      <stop offset="1" style="stop-color: rgba(123, 123, 123, 0.28);"/>
    </radialGradient>
    <radialGradient gradientUnits="userSpaceOnUse" cx="119.737" cy="127.281" r="2.966" id="gradient-3" gradientTransform="matrix(3.32166, 0.65288, -3.603151, 26.091599, 185.75581, -3336.938793)">
      <stop offset="0" style="stop-color: rgba(216, 216, 216, 0.31);"/>
      <stop offset="1" style="stop-color: rgba(123, 123, 123, 0.16);"/>
    </radialGradient>
    <radialGradient gradientUnits="userSpaceOnUse" cx="110.58" cy="127.135" r="1.97" id="gradient-6" gradientTransform="matrix(5.105964, 0.753652, 2.933464, -29.88571, -831.273945, 3874.291676)">
      <stop offset="0" style="stop-color: rgba(216, 216, 216, 0.173);"/>
      <stop offset="1" style="stop-color: rgba(123, 123, 123, 0.28);"/>
    </radialGradient>
    <radialGradient gradientUnits="userSpaceOnUse" cx="119.737" cy="127.281" r="2.966" id="gradient-7" gradientTransform="matrix(3.32166, -0.671078, -3.603151, -26.818905, 186.26405, 3651.626881)">
      <stop offset="0" style="stop-color: rgba(216, 216, 216, 0.31);"/>
      <stop offset="1" style="stop-color: rgba(123, 123, 123, 0.16);"/>
    </radialGradient>
  </defs>
  <path d="M 226.5 115 C 226.5 176.58 176.579 226.5 115 226.5 C 53.42 226.5 3.5 176.58 3.5 115 C 3.5 53.421 53.42 3.5 115 3.5 C 176.579 3.5 226.5 53.421 226.5 115 Z" style="fill: url('#gradient-9');" transform="matrix(1, 0, 0, 1, 0, 7.105427357601002e-15)"/>
  <path style="fill: url('#gradient-4'); stroke: rgb(206, 206, 206);" d="M 101.05 111.062 C 101.05 111.062 103.60441418305831 107.65263852219502 103.638 103.86 C 103.76244253475272 89.80747443774466 66.36427241157658 6.997467486829897 69.865 4.373 C 70.74556074866061 3.7128506462826127 73.39956647267046 6.7876920478380045 75.308 8.189 C 77.49837559919273 9.797329921590363 80.22055710971871 12.496450989589421 82.251 13.525 C 83.5864794709216 14.201505650474006 84.68693545676565 14.56112066384424 85.889 14.581 C 87.05972313954003 14.600361022639948 88.20477850200787 14.236967055270698 89.371 13.694 C 90.77626791218616 13.039738196852134 92.15769553676459 11.871006192208753 93.611 10.654 C 95.36260298577443 9.18719677059747 97.15012530387865 6.406668162498465 99.04 5.366 C 100.54262787545694 4.538571074008202 102.15604078751866 4.153854157366617 103.7 4.253 C 105.28656529001867 4.354881805749892 107.1254049633255 5.163030541487216 108.43 6.048 C 109.63627430209068 6.866273782997233 110.4125051340186 8.207042547310694 111.351 9.238 C 112.22948426383219 10.203034473492806 112.88232541438411 11.292755411765672 113.894 12.048 C 114.94374841987852 12.831667816107219 116.23898419501658 13.624212891964811 117.573 13.813 C 119.01543608887688 14.017130518339734 120.82585734423557 13.617465844098614 122.278 13.024 C 123.76320909833404 12.417020466889502 124.84563207586359 11.264453199120698 126.369 10.166 C 128.34418517284078 8.741755444507767 130.85046359421705 5.591659772663014 133.1 5.158 C 134.97591811746554 4.7963653884137125 136.99920817379322 5.6654027483648335 138.74 6.651 C 140.7164496264271 7.770021407658248 142.25721624691562 10.634907323661457 144.131 11.895 C 145.71262689030587 12.958621379945198 147.1849539066313 14.334420576191787 149.04 14.043 C 152.11454009843607 13.560001625882013 158.53888733843357 3.2766265510644454 160.066 4.292 C 164.13672087309592 6.998612286437076 125.5882528205283 87.11210612993327 126.485 103.343 C 126.78591587124086 108.78950006349264 132.88540127623608 111.75132415791781 131.472 114.012 C 129.1201757814354 117.77364383400835 100.20084616713667 116.89909335002844 98.869 114.535 C 98.39667155806028 113.69659346614358 101.05 111.062 101.05 111.062 C 101.05 111.06199999999998 101.05000000000001 111.062 101.05 111.062" transform="matrix(1, 0, 0, 1, 0, 7.105427357601002e-15)" bx:d="M 101.05 111.062 R 103.638 103.86 R 69.865 4.373 R 75.308 8.189 R 82.251 13.525 R 85.889 14.581 R 89.371 13.694 R 93.611 10.654 R 99.04 5.366 R 103.7 4.253 R 108.43 6.048 R 111.351 9.238 R 113.894 12.048 R 117.573 13.813 R 122.278 13.024 R 126.369 10.166 R 133.1 5.158 R 138.74 6.651 R 144.131 11.895 R 149.04 14.043 R 160.066 4.292 R 126.485 103.343 R 131.472 114.012 R 98.869 114.535 R 101.05 111.062 Z 1@2c382cf8"/>
  <path style="stroke: rgb(213, 213, 213); fill: url('#gradient-8');" d="M 101.05 118.935 C 101.05 118.935 103.60457387352331 122.34546780211464 103.638 126.139 C 103.76183562037923 140.19310864705363 66.36464935359925 223.00215180782806 69.865 225.626 C 70.74550395417862 226.28602207828735 73.39952375828454 223.21052022254702 75.308 221.809 C 77.49833004136418 220.20049590656424 80.22052034531914 217.50124420600002 82.251 216.473 C 83.58645453398653 215.79671970150866 84.68697803558545 215.43756409439968 85.889 215.418 C 87.0597649638074 215.39894464414974 88.20473023875715 215.76292966863227 89.371 216.306 C 90.77619930326115 216.96032722052792 92.15770242820477 218.12830899389772 93.611 219.345 C 95.36261185787838 220.81143773100794 97.15023156541157 223.59100679608778 99.04 224.632 C 100.54268547372465 225.45976563367967 102.15605705527923 225.8461165584713 103.7 225.747 C 105.28658289704126 225.6451460830391 107.12537574434722 224.83534131387734 108.43 223.95 C 109.63621668747084 223.13143981895234 110.41237281300825 221.79055254935713 111.351 220.76 C 112.22935030862418 219.79562760345524 112.88262558885631 218.70812381866352 113.894 217.953 C 114.94391199958567 217.16910281053958 116.23886440556615 216.37425497454302 117.573 216.185 C 119.01533613313897 215.9803961431667 120.8258228936388 216.38065928203144 122.278 216.974 C 123.76315911867148 217.5808167401276 124.84577050445466 218.73250475803727 126.369 219.831 C 128.34432983267675 221.255532828998 130.8503320873841 224.40798024436054 133.1 224.842 C 134.97582755691695 225.20389617734656 136.99927002326064 224.33478129877946 138.74 223.349 C 140.71656264718078 222.22966585886763 142.2569936275889 219.36280366185088 144.131 218.103 C 145.71249075625963 217.03984041033664 147.18501910468743 215.66619881923623 149.04 215.958 C 152.1146385174945 216.44166166578526 158.53877773423432 226.722561803342 160.066 225.707 C 164.1371778315009 222.99977604644408 125.58854285191728 142.88839404310173 126.485 126.657 C 126.78583147899144 121.21009795172888 132.88556838581317 118.24792982541967 131.472 115.987 C 129.11998760153617 112.22507731213183 100.20043114504132 113.09936963440906 98.869 115.463 C 98.3968676115029 116.30115558482828 101.05 118.935 101.05 118.935 C 101.05000000000003 118.93500000000003 101.05 118.935 101.05 118.935" transform="matrix(1, 0, 0, 1, 0, 7.105427357601002e-15)" bx:d="M 101.05 118.935 R 103.638 126.139 R 69.865 225.626 R 75.308 221.809 R 82.251 216.473 R 85.889 215.418 R 89.371 216.306 R 93.611 219.345 R 99.04 224.632 R 103.7 225.747 R 108.43 223.95 R 111.351 220.76 R 113.894 217.953 R 117.573 216.185 R 122.278 216.974 R 126.369 219.831 R 133.1 224.842 R 138.74 223.349 R 144.131 218.103 R 149.04 215.958 R 160.066 225.707 R 126.485 126.657 R 131.472 115.987 R 98.869 115.463 R 101.05 118.935 Z 1@d2cfa24e"/>
  <path style="fill: url('#gradient-0');" d="M 99.299 104.718 C 99.299 104.718 97.91190395262933 103.47941581356451 97.531 102.41 C 96.92173068005489 100.69943165075775 96.59590452191226 96.96625100908088 97.303 94.975 C 97.89899283564222 93.2966250532572 99.12625266951699 92.02115410212286 100.76 90.978 C 102.96206623548369 89.57197203972056 106.72743956545315 88.7933031706971 109.99 88.336 C 113.52122925915259 87.84103833750652 117.79183933674027 87.85157952456329 121.237 88.339 C 124.2757093205326 88.76891584036217 127.6793704178738 89.57777078408462 129.644 90.764 C 130.9945130300476 91.57943005729513 131.9075841362305 92.38795597034691 132.508 93.746 C 133.31449710179226 95.57016661536093 133.485495597059 99.07200044226309 133.01 101.189 C 132.6129310612362 102.95682870956742 132.00892911481506 104.9748349251935 130.474 105.731 C 128.17756703213502 106.86231114015186 122.37779232553989 104.26511941941256 118.954 104.036 C 116.22612675384848 103.8534513302904 114.18880154936184 103.8297201459325 111.563 104.128 C 108.49267707032162 104.47677558649744 103.80794781418227 106.66137817787514 101.687 106.272 C 100.56085466024409 106.06525449806703 99.299 104.718 99.299 104.718 C 99.299 104.718 99.299 104.718 99.299 104.718" transform="matrix(1, 0, 0, 1, 0, 7.105427357601002e-15)" bx:d="M 99.299 104.718 R 97.531 102.41 R 97.303 94.975 R 100.76 90.978 R 109.99 88.336 R 121.237 88.339 R 129.644 90.764 R 132.508 93.746 R 133.01 101.189 R 130.474 105.731 R 118.954 104.036 R 111.563 104.128 R 101.687 106.272 R 99.299 104.718 Z 1@2a47af52"/>
  <path style="fill: url('#gradient-1');" d="M 99.274 118.691 C 99.274 118.691 97.87580922065878 117.3855493588053 97.491 116.269 C 96.87087976374981 114.46968019424806 96.54043263162731 110.55890927949805 97.263 108.462 C 97.86700245952817 106.70916916697115 99.08862863325976 105.36050170443416 100.749 104.263 C 102.96385294418889 102.7989872315248 106.76233321868406 101.96370657402359 110.054 101.484 C 113.60993407407844 100.96578079208612 117.91744504710309 100.98213984320475 121.387 101.493 C 124.45292706428545 101.94442965079018 127.88758231418916 102.80079019553679 129.863 104.037 C 131.23330316158814 104.89453115182165 132.14068358383082 105.75363331034427 132.747 107.17 C 133.56924896746352 109.09078923984492 133.73756843884442 112.75783958056658 133.255 114.985 C 132.8538394745184 116.83644483615896 132.26950353878416 118.9718414972456 130.7 119.756 C 128.3875775412064 120.91133714210547 122.53973488056326 118.21254730328984 119.088 117.972 C 116.33935188391446 117.78044997808485 114.28424159864801 117.75787961369424 111.639 118.071 C 108.54263191617301 118.43752076356587 103.8186806154944 120.72476261467776 101.683 120.322 C 100.54283511970145 120.10697918414336 99.274 118.691 99.274 118.691 C 99.274 118.69099999999999 99.27400000000002 118.691 99.274 118.691" transform="matrix(1, 0, 0, 1, 0, 7.105427357601002e-15)" bx:d="M 99.274 118.691 R 97.491 116.269 R 97.263 108.462 R 100.749 104.263 R 110.054 101.484 R 121.387 101.493 R 129.863 104.037 R 132.747 107.17 R 133.255 114.985 R 130.7 119.756 R 119.088 117.972 R 111.639 118.071 R 101.683 120.322 R 99.274 118.691 Z 1@809eb88b"/>
  <path style="fill: url('#gradient-2');" d="M 99.41 131.671 C 99.41 131.671 98.0406265009786 130.35516449688834 97.663 129.237 C 97.05231950905257 127.42875496912903 96.72395184541574 123.51235225756432 97.437 121.405 C 98.03049337969492 119.65098155747444 99.22023655568856 118.29121317635861 100.856 117.189 C 103.02374887904344 115.72832340533257 106.74591423327821 114.88530890750323 109.973 114.404 C 113.45650356649725 113.88444724650206 117.68237850103094 113.89596394476709 121.081 114.408 C 124.08682655079105 114.86085759836695 127.45098171475568 115.73039023456948 129.385 116.965 C 130.73421092651395 117.82628916060857 131.61960069002026 118.69128596344093 132.215 120.107 C 133.0267791024107 122.0372122972015 133.18588702346625 125.71482072580507 132.71 127.952 C 132.31557859946508 129.80620349592328 131.75697957829087 131.95495038175616 130.206 132.736 C 127.94057194692137 133.87683495410408 122.20820104598064 131.1916292270475 118.825 130.951 C 116.13191055303686 130.75945476719082 114.1174066699128 130.73629720033458 111.526 131.05 C 108.49037016925176 131.4174782455838 103.85722869575397 133.70963296779763 101.767 133.308 C 100.64821229015344 133.09302733736553 99.41 131.671 99.41 131.671 C 99.41000000000003 131.67100000000002 99.41 131.671 99.41 131.671" transform="matrix(1, 0, 0, 1, 0, 7.105427357601002e-15)" bx:d="M 99.41 131.671 R 97.663 129.237 R 97.437 121.405 R 100.856 117.189 R 109.973 114.404 R 121.081 114.408 R 129.385 116.965 R 132.215 120.107 R 132.71 127.952 R 130.206 132.736 R 118.825 130.951 R 111.526 131.05 R 101.767 133.308 R 99.41 131.671 Z 1@f096a4fd"/>
  <path style="fill: url('#gradient-5');" d="M 106.043 89.966 C 106.043 89.966 102.3239362011787 63.779247451473076 101.733 50.69 C 101.14572951202005 37.68194816160496 101.51833701868277 11.727060830280116 102.477 11.674 C 103.42340080617238 11.621617866203328 106.16181475886185 36.679434140209906 107.394 49.386 C 108.64499978948412 62.28658563027494 109.889 88.508 109.889 88.508" transform="matrix(1, 0, 0, 1, 0, 7.105427357601002e-15)" bx:d="M 106.043 89.966 R 101.733 50.69 R 102.477 11.674 R 107.394 49.386 R 109.889 88.508 1@2987a547"/>
  <path style="fill: url('#gradient-3');" d="M 118.687 88.372 C 118.687 88.372 122.12996265140322 61.93655880772839 124.778 48.864 C 127.43711638768538 35.73674733000595 133.7212387910607 9.611985023410744 134.624 9.775 C 135.53263528999312 9.939075681431252 132.21314607384096 36.95846772155871 130.119 50.362 C 128.03484148760327 63.701607128294185 122.106 90.008 122.106 90.008" transform="matrix(1, 0, 0, 1, 0, 7.105427357601002e-15)" bx:d="M 118.687 88.372 R 124.778 48.864 R 134.624 9.775 R 130.119 50.362 R 122.106 90.008 1@12c64f66"/>
  <path style="fill: url('#gradient-6');" d="M 106.553 129.194 C 106.553 129.194 102.83333548129526 156.11275863060737 102.242 169.566 C 101.65426291588476 182.93737564792562 102.02659879196018 209.61638940852646 102.985 209.668 C 103.93094839828599 209.71893999874948 106.6678592574996 183.96450928604128 107.9 170.905 C 109.15116798965771 157.64382015606898 110.397 130.693 110.397 130.693" transform="matrix(1, 0, 0, 1, 0, 7.105427357601002e-15)" bx:d="M 106.553 129.194 R 102.242 169.566 R 102.985 209.668 R 107.9 170.905 R 110.397 130.693 1@aa6fd64d"/>
  <path style="fill: url('#gradient-7');" d="M 119.195 130.83 C 119.195 130.83 122.63785834947062 158.00016951991017 125.287 171.441 C 127.94594099596773 184.93154897695717 134.22904605656043 211.7808359463827 135.133 211.622 C 136.0433963241075 211.46203204723824 132.7229591513006 183.68256828271961 130.628 169.903 C 128.5438516896801 156.19453989206042 122.614 129.154 122.614 129.154" transform="matrix(1, 0, 0, 1, 0, 7.105427357601002e-15)" bx:d="M 119.195 130.83 R 125.287 171.441 R 135.133 211.622 R 130.628 169.903 R 122.614 129.154 1@55ce0db2"/>
</svg>