<svg viewBox="0 0 500 500" xmlns="http://www.w3.org/2000/svg">
  <path d="M 480 250 C 480.518 266.104 469.488 280.561 466.299 296.354 C 463.436 310.533 467.986 326.393 461.925 339.527 C 449.609 366.213 431.318 389.947 412.635 412.635 C 403.284 423.99 391.732 434.1 378.596 440.72 C 365.131 447.506 348.659 446.035 334.761 451.883 C 320.936 457.7 311.348 474.956 296.353 475.327 C 219.278 477.235 146.936 461.978 87.365 412.635 C 77.259 404.264 76.159 388.787 68.823 377.906 C 59.659 364.314 45.879 353.942 38.075 339.527 C 30.901 326.275 27.655 311.124 24.673 296.353 C 21.6 281.131 18.635 265.469 20 250 C 21.343 234.779 29.627 220.918 32.651 205.94 C 35.672 190.979 31.68 174.332 38.075 160.473 C 50.389 133.786 66.882 108.442 87.365 87.365 C 97.634 76.798 115.162 76.814 127.38 68.577 C 139.819 60.191 146.305 43.008 160.473 38.075 C 202.592 23.41 298.56 23.164 339.527 38.075 C 367.145 48.127 391.523 66.918 412.635 87.365 C 423.897 98.272 425.029 116.372 433.793 129.372 C 441.607 140.963 456.925 147.419 461.925 160.473 C 472.815 188.903 479.02 219.571 480 250 Z" style="stroke: rgb(0, 0, 0); fill: none;"/>
</svg>