<?xml version="1.0" encoding="utf-8"?>
<svg viewBox="0 0 500 500" xmlns="http://www.w3.org/2000/svg">
  <path d="M 480 250 C 480.518 266.104 469.488 280.561 466.299 296.354 C 463.436 310.533 467.986 326.393 461.925 339.527 C 449.609 366.213 431.318 389.947 412.635 412.635 C 403.284 423.99 391.732 434.1 378.596 440.72 C 365.131 447.506 348.659 446.035 334.761 451.883 C 320.936 457.7 311.348 474.956 296.353 475.327 C 219.278 477.235 146.936 461.978 87.365 412.635 C 77.259 404.264 76.159 388.787 68.823 377.906 C 59.659 364.314 45.879 353.942 38.075 339.527 C 30.901 326.275 27.655 311.124 24.673 296.353 C 21.6 281.131 18.635 265.469 20 250 C 21.343 234.779 29.627 220.918 32.651 205.94 C 35.672 190.979 31.68 174.332 38.075 160.473 C 50.389 133.786 66.882 108.442 87.365 87.365 C 97.634 76.798 115.162 76.814 127.38 68.577 C 139.819 60.191 146.305 43.008 160.473 38.075 C 202.592 23.41 298.56 23.164 339.527 38.075 C 367.145 48.127 391.523 66.918 412.635 87.365 C 423.897 98.272 425.029 116.372 433.793 129.372 C 441.607 140.963 456.925 147.419 461.925 160.473 C 472.815 188.903 479.02 219.571 480 250 Z" style="stroke: rgb(0, 0, 0); fill: rgb(69, 48, 42);"/>
  <path d="M 461.484 248.866 C 461.961 263.663 451.826 276.946 448.896 291.458 C 446.264 304.486 450.446 319.059 444.877 331.127 C 433.559 355.647 416.754 377.456 399.587 398.304 C 390.995 408.736 380.38 418.027 368.311 424.11 C 355.937 430.344 340.803 428.993 328.032 434.365 C 315.329 439.711 306.52 455.566 292.741 455.908 C 221.921 457.66 155.45 443.642 100.713 398.304 C 91.427 390.611 90.416 376.39 83.675 366.393 C 75.255 353.904 62.593 344.373 55.422 331.127 C 48.831 318.951 45.848 305.03 43.108 291.457 C 40.285 277.471 37.559 263.08 38.815 248.866 C 40.048 234.88 47.66 222.145 50.439 208.382 C 53.214 194.635 49.547 179.339 55.422 166.604 C 66.737 142.083 81.891 118.795 100.713 99.429 C 110.148 89.72 126.254 89.735 137.48 82.166 C 148.91 74.461 154.87 58.671 167.887 54.139 C 206.589 40.665 294.768 40.438 332.411 54.139 C 357.789 63.375 380.189 80.641 399.587 99.429 C 409.934 109.45 410.975 126.082 419.028 138.027 C 426.208 148.678 440.283 154.61 444.877 166.604 C 454.883 192.727 460.585 220.906 461.484 248.866 Z" style="fill: rgb(231, 166, 101); stroke: rgb(106, 68, 46); stroke-width: 2px;"/>
  <path d="M 451.484 248.92 C 451.938 263.018 442.283 275.673 439.491 289.499 C 436.984 301.911 440.968 315.795 435.662 327.292 C 424.879 350.653 408.869 371.431 392.514 391.293 C 384.328 401.232 374.215 410.083 362.716 415.879 C 350.927 421.818 336.509 420.531 324.342 425.649 C 312.239 430.742 303.847 445.847 290.719 446.173 C 223.248 447.842 159.92 434.487 107.771 391.293 C 98.924 383.964 97.96 370.415 91.538 360.891 C 83.516 348.992 71.453 339.912 64.621 327.292 C 58.342 315.692 55.5 302.429 52.889 289.498 C 50.2 276.173 47.603 262.462 48.799 248.92 C 49.974 235.596 57.226 223.463 59.874 210.35 C 62.517 197.253 59.024 182.681 64.621 170.548 C 75.401 147.186 89.838 124.999 107.771 106.549 C 116.759 97.299 132.104 97.313 142.799 90.102 C 153.689 82.761 159.367 67.718 171.769 63.4 C 208.641 50.563 292.65 50.347 328.514 63.4 C 352.692 72.199 374.033 88.649 392.514 106.549 C 402.371 116.096 403.363 131.942 411.035 143.322 C 417.876 153.469 431.285 159.121 435.662 170.548 C 445.195 195.436 450.628 222.282 451.484 248.92 Z" style="fill: none; stroke: rgb(106, 68, 46); stroke-width: 2px;"/>
  <path d="M 442.985 248.966 C 443.42 262.469 434.172 274.59 431.498 287.833 C 429.097 299.721 432.913 313.02 427.83 324.032 C 417.502 346.407 402.168 366.309 386.502 385.333 C 378.662 394.853 368.975 403.33 357.961 408.882 C 346.67 414.57 332.86 413.338 321.206 418.24 C 309.614 423.118 301.576 437.586 289.001 437.898 C 224.377 439.497 163.72 426.705 113.771 385.333 C 105.297 378.313 104.374 365.336 98.223 356.213 C 90.539 344.816 78.985 336.119 72.441 324.032 C 66.427 312.921 63.705 300.217 61.204 287.832 C 58.628 275.069 56.141 261.936 57.286 248.966 C 58.412 236.204 65.358 224.583 67.894 212.023 C 70.426 199.478 67.08 185.521 72.441 173.9 C 82.766 151.523 96.594 130.272 113.771 112.6 C 122.38 103.74 137.077 103.754 147.321 96.847 C 157.752 89.816 163.19 75.407 175.069 71.271 C 210.386 58.976 290.851 58.769 325.202 71.271 C 348.36 79.699 368.801 95.455 386.502 112.6 C 395.944 121.745 396.894 136.922 404.242 147.822 C 410.795 157.541 423.638 162.955 427.83 173.9 C 436.961 197.738 442.165 223.451 442.985 248.966 Z" style="fill: none; stroke: rgb(106, 68, 46); stroke-width: 2px;"/>
  <path d="M 437.486 248.995 C 437.909 262.113 428.924 273.889 426.327 286.754 C 423.994 298.304 427.701 311.224 422.763 321.922 C 412.729 343.659 397.832 362.994 382.613 381.476 C 374.996 390.724 365.585 398.96 354.885 404.354 C 343.916 409.88 330.5 408.683 319.178 413.445 C 307.916 418.184 300.107 432.24 287.89 432.543 C 225.108 434.096 166.18 421.669 117.654 381.476 C 109.422 374.656 108.525 362.049 102.549 353.186 C 95.084 342.113 83.859 333.664 77.502 321.922 C 71.659 311.127 69.015 298.785 66.585 286.753 C 64.083 274.354 61.666 261.595 62.779 248.995 C 63.873 236.597 70.621 225.307 73.085 213.105 C 75.544 200.917 72.294 187.358 77.502 176.068 C 87.533 154.329 100.967 133.684 117.654 116.515 C 126.018 107.908 140.296 107.921 150.248 101.211 C 160.382 94.38 165.665 80.382 177.205 76.364 C 211.516 64.419 289.688 64.218 323.06 76.364 C 345.558 84.552 365.416 99.859 382.613 116.515 C 391.786 125.4 392.709 140.144 399.847 150.733 C 406.214 160.175 418.69 165.435 422.763 176.068 C 431.634 199.227 436.69 224.207 437.486 248.995 Z" style="fill: none; stroke: rgb(106, 68, 46); stroke-width: 2px;"/>
  <path d="M 463.983 248.853 C 464.466 263.825 454.211 277.266 451.247 291.949 C 448.584 305.132 452.815 319.877 447.18 332.088 C 435.727 356.897 418.725 378.964 401.355 400.059 C 392.661 410.613 381.92 420.013 369.709 426.171 C 357.188 432.477 341.876 431.111 328.955 436.546 C 316.1 441.955 307.188 457.997 293.244 458.343 C 221.589 460.115 154.332 445.932 98.948 400.059 C 89.552 392.275 88.529 377.886 81.709 367.77 C 73.188 355.133 60.377 345.489 53.121 332.088 C 46.452 319.766 43.435 305.681 40.662 291.947 C 37.805 277.796 35.048 263.234 36.317 248.853 C 37.566 234.703 45.268 221.818 48.079 207.892 C 50.887 193.981 47.177 178.505 53.121 165.619 C 64.571 140.808 79.903 117.245 98.948 97.649 C 108.494 87.825 124.79 87.841 136.149 80.183 C 147.715 72.386 153.744 56.41 166.916 51.824 C 206.076 38.19 295.297 37.961 333.385 51.824 C 359.063 61.169 381.728 78.64 401.355 97.649 C 411.824 107.791 412.878 124.618 421.025 136.703 C 428.292 147.48 442.531 153.484 447.18 165.619 C 457.304 192.052 463.075 220.562 463.983 248.853 Z" style="fill: none; stroke: rgb(106, 68, 46); stroke-width: 2px;"/>
  <path d="M 421.487 249.081 C 421.874 261.079 413.656 271.851 411.28 283.618 C 409.147 294.182 412.537 306 408.021 315.785 C 398.843 335.667 385.217 353.352 371.297 370.257 C 364.33 378.716 355.722 386.249 345.935 391.183 C 335.902 396.237 323.631 395.142 313.275 399.498 C 302.974 403.832 295.831 416.689 284.657 416.966 C 227.232 418.387 173.333 407.02 128.948 370.257 C 121.418 364.019 120.598 352.488 115.132 344.381 C 108.304 334.253 98.036 326.525 92.222 315.785 C 86.877 305.911 84.459 294.622 82.236 283.617 C 79.948 272.276 77.737 260.606 78.755 249.081 C 79.756 237.741 85.928 227.414 88.182 216.254 C 90.431 205.106 87.458 192.704 92.222 182.377 C 101.397 162.493 113.685 143.61 128.948 127.906 C 136.598 120.033 149.657 120.045 158.76 113.908 C 168.029 107.66 172.862 94.856 183.417 91.181 C 214.8 80.255 286.301 80.072 316.826 91.181 C 337.404 98.67 355.567 112.671 371.297 127.906 C 379.687 136.033 380.531 149.519 387.06 159.204 C 392.884 167.84 404.295 172.651 408.021 182.377 C 416.135 203.56 420.759 226.408 421.487 249.081 Z" style="fill: none; stroke: rgb(106, 68, 46); stroke-width: 2px;"/>
</svg>